{
	"asset":{
		"generator":"Khronos glTF Blender I/O v5.1.20",
		"version":"2.0"
	},
	"scene":0,
	"scenes":[
		{
			"name":"Scene",
			"nodes":[
				0
			]
		}
	],
	"nodes":[
		{
			"mesh":0,
			"name":"Corvette.001"
		}
	],
	"materials":[
		{
			"doubleSided":true,
			"name":"Material",
			"normalTexture":{
				"index":0
			},
			"pbrMetallicRoughness":{
				"baseColorFactor":[
					0.800000011920929,
					0.800000011920929,
					0.800000011920929,
					1
				],
				"metallicFactor":0,
				"roughnessFactor":0.5
			}
		}
	],
	"meshes":[
		{
			"name":"Corvette.005",
			"primitives":[
				{
					"attributes":{
						"POSITION":0,
						"NORMAL":1,
						"TEXCOORD_0":2
					},
					"indices":3,
					"material":0
				},
				{
					"attributes":{
						"POSITION":4,
						"NORMAL":5,
						"TEXCOORD_0":6
					},
					"indices":7
				}
			]
		}
	],
	"textures":[
		{
			"sampler":0,
			"source":0
		}
	],
	"images":[
		{
			"mimeType":"image/png",
			"name":"Corvette_Normal_map",
			"uri":"Corvette_Normal_map.png"
		}
	],
	"accessors":[
		{
			"bufferView":0,
			"componentType":5126,
			"count":420,
			"max":[
				15.197639465332031,
				45.70917892456055,
				60.11871337890625
			],
			"min":[
				-15.197639465332031,
				-10.005184173583984,
				-65
			],
			"type":"VEC3"
		},
		{
			"bufferView":1,
			"componentType":5126,
			"count":420,
			"type":"VEC3"
		},
		{
			"bufferView":2,
			"componentType":5126,
			"count":420,
			"type":"VEC2"
		},
		{
			"bufferView":3,
			"componentType":5123,
			"count":1467,
			"type":"SCALAR"
		},
		{
			"bufferView":4,
			"componentType":5126,
			"count":688,
			"max":[
				15.478736877441406,
				33.5,
				90
			],
			"min":[
				-15.478736877441406,
				-9.993946075439453,
				-45.31298065185547
			],
			"type":"VEC3"
		},
		{
			"bufferView":5,
			"componentType":5126,
			"count":688,
			"type":"VEC3"
		},
		{
			"bufferView":6,
			"componentType":5126,
			"count":688,
			"type":"VEC2"
		},
		{
			"bufferView":7,
			"componentType":5123,
			"count":2625,
			"type":"SCALAR"
		}
	],
	"bufferViews":[
		{
			"buffer":0,
			"byteLength":5040,
			"byteOffset":0,
			"target":34962
		},
		{
			"buffer":0,
			"byteLength":5040,
			"byteOffset":5040,
			"target":34962
		},
		{
			"buffer":0,
			"byteLength":3360,
			"byteOffset":10080,
			"target":34962
		},
		{
			"buffer":0,
			"byteLength":2934,
			"byteOffset":13440,
			"target":34963
		},
		{
			"buffer":0,
			"byteLength":8256,
			"byteOffset":16376,
			"target":34962
		},
		{
			"buffer":0,
			"byteLength":8256,
			"byteOffset":24632,
			"target":34962
		},
		{
			"buffer":0,
			"byteLength":5504,
			"byteOffset":32888,
			"target":34962
		},
		{
			"buffer":0,
			"byteLength":5250,
			"byteOffset":38392,
			"target":34963
		}
	],
	"samplers":[
		{
			"magFilter":9729,
			"minFilter":9987
		}
	],
	"buffers":[
		{
			"byteLength":43644,
			"uri":"Corvette.bin"
		}
	]
}
