{
	"asset":{
		"generator":"Khronos glTF Blender I/O v5.1.20",
		"version":"2.0"
	},
	"scene":0,
	"scenes":[
		{
			"name":"Scene",
			"nodes":[
				0
			]
		}
	],
	"nodes":[
		{
			"mesh":0,
			"name":"Cylinder.024"
		}
	],
	"meshes":[
		{
			"name":"Cylinder.025",
			"primitives":[
				{
					"attributes":{
						"POSITION":0,
						"NORMAL":1,
						"TEXCOORD_0":2
					},
					"indices":3
				}
			]
		}
	],
	"accessors":[
		{
			"bufferView":0,
			"componentType":5126,
			"count":1039,
			"max":[
				5.809915542602539,
				8.630805015563965,
				5.723067283630371
			],
			"min":[
				-5.801687717437744,
				1,
				-5.723066806793213
			],
			"type":"VEC3"
		},
		{
			"bufferView":1,
			"componentType":5126,
			"count":1039,
			"type":"VEC3"
		},
		{
			"bufferView":2,
			"componentType":5126,
			"count":1039,
			"type":"VEC2"
		},
		{
			"bufferView":3,
			"componentType":5123,
			"count":1728,
			"type":"SCALAR"
		}
	],
	"bufferViews":[
		{
			"buffer":0,
			"byteLength":12468,
			"byteOffset":0,
			"target":34962
		},
		{
			"buffer":0,
			"byteLength":12468,
			"byteOffset":12468,
			"target":34962
		},
		{
			"buffer":0,
			"byteLength":8312,
			"byteOffset":24936,
			"target":34962
		},
		{
			"buffer":0,
			"byteLength":3456,
			"byteOffset":33248,
			"target":34963
		}
	],
	"buffers":[
		{
			"byteLength":36704,
			"uri":"Light_Turret.bin"
		}
	]
}
