{
	"asset":{
		"generator":"Khronos glTF Blender I/O v5.1.20",
		"version":"2.0"
	},
	"extensionsUsed":[
		"KHR_materials_specular"
	],
	"scene":0,
	"scenes":[
		{
			"name":"Scene",
			"nodes":[
				0
			]
		}
	],
	"nodes":[
		{
			"mesh":0,
			"name":"Cruiser.001"
		}
	],
	"materials":[
		{
			"doubleSided":true,
			"extensions":{
				"KHR_materials_specular":{
					"specularFactor":0
				}
			},
			"name":"Steel_-_Satin",
			"pbrMetallicRoughness":{
				"baseColorFactor":[
					0.6274510025978088,
					0.6274510025978088,
					0.6274510025978088,
					1
				],
				"metallicFactor":0
			}
		},
		{
			"doubleSided":true,
			"name":"Material",
			"normalTexture":{
				"index":0
			},
			"pbrMetallicRoughness":{
				"baseColorFactor":[
					0.800000011920929,
					0.800000011920929,
					0.800000011920929,
					1
				],
				"metallicFactor":0,
				"roughnessFactor":0.5
			}
		}
	],
	"meshes":[
		{
			"name":"Cruiser.001",
			"primitives":[
				{
					"attributes":{
						"POSITION":0,
						"NORMAL":1,
						"TEXCOORD_0":2
					},
					"indices":3,
					"material":0
				},
				{
					"attributes":{
						"POSITION":4,
						"NORMAL":5,
						"TEXCOORD_0":6
					},
					"indices":7,
					"material":1
				}
			]
		}
	],
	"textures":[
		{
			"sampler":0,
			"source":0
		}
	],
	"images":[
		{
			"mimeType":"image/png",
			"name":"Cruiser_Normal_Map",
			"uri":"Cruiser_Normal_Map.png"
		}
	],
	"accessors":[
		{
			"bufferView":0,
			"componentType":5126,
			"count":10751,
			"max":[
				25.88618278503418,
				18.045312881469727,
				150
			],
			"min":[
				-25.88618278503418,
				-15,
				-150
			],
			"type":"VEC3"
		},
		{
			"bufferView":1,
			"componentType":5126,
			"count":10751,
			"type":"VEC3"
		},
		{
			"bufferView":2,
			"componentType":5126,
			"count":10751,
			"type":"VEC2"
		},
		{
			"bufferView":3,
			"componentType":5123,
			"count":47484,
			"type":"SCALAR"
		},
		{
			"bufferView":4,
			"componentType":5126,
			"count":14830,
			"max":[
				29.94866180419922,
				54.07506561279297,
				114.69453430175781
			],
			"min":[
				-29.94866180419922,
				14.995203971862793,
				-28.106843948364258
			],
			"type":"VEC3"
		},
		{
			"bufferView":5,
			"componentType":5126,
			"count":14830,
			"type":"VEC3"
		},
		{
			"bufferView":6,
			"componentType":5126,
			"count":14830,
			"type":"VEC2"
		},
		{
			"bufferView":7,
			"componentType":5123,
			"count":69510,
			"type":"SCALAR"
		}
	],
	"bufferViews":[
		{
			"buffer":0,
			"byteLength":129012,
			"byteOffset":0,
			"target":34962
		},
		{
			"buffer":0,
			"byteLength":129012,
			"byteOffset":129012,
			"target":34962
		},
		{
			"buffer":0,
			"byteLength":86008,
			"byteOffset":258024,
			"target":34962
		},
		{
			"buffer":0,
			"byteLength":94968,
			"byteOffset":344032,
			"target":34963
		},
		{
			"buffer":0,
			"byteLength":177960,
			"byteOffset":439000,
			"target":34962
		},
		{
			"buffer":0,
			"byteLength":177960,
			"byteOffset":616960,
			"target":34962
		},
		{
			"buffer":0,
			"byteLength":118640,
			"byteOffset":794920,
			"target":34962
		},
		{
			"buffer":0,
			"byteLength":139020,
			"byteOffset":913560,
			"target":34963
		}
	],
	"samplers":[
		{
			"magFilter":9729,
			"minFilter":9987
		}
	],
	"buffers":[
		{
			"byteLength":1052580,
			"uri":"Cruiser.bin"
		}
	]
}
