{
	"asset":{
		"generator":"Khronos glTF Blender I/O v5.1.19",
		"version":"2.0"
	},
	"scene":0,
	"scenes":[
		{
			"extras":{
				"bsurfaces":{
					"SURFSK_mesh":{
						"name":"BSurfaceMesh.001",
						"type":"Object"
					},
					"SURFSK_shade_smooth":0,
					"SURFSK_edges_U":5,
					"SURFSK_edges_V":1,
					"SURFSK_cyclic_cross":0,
					"SURFSK_cyclic_follow":0,
					"SURFSK_automatic_join":1,
					"SURFSK_loops_on_strokes":1,
					"SURFSK_keep_strokes":0
				}
			},
			"name":"Scene",
			"nodes":[
				0
			]
		}
	],
	"nodes":[
		{
			"mesh":0,
			"name":"BSurfaceMesh",
			"scale":[
				0.10000002384185791,
				0.10000002384185791,
				0.10000002384185791
			]
		}
	],
	"materials":[
		{
			"doubleSided":true,
			"name":"Material",
			"normalTexture":{
				"index":0
			},
			"pbrMetallicRoughness":{
				"baseColorFactor":[
					0.800000011920929,
					0.800000011920929,
					0.800000011920929,
					1
				],
				"metallicFactor":0,
				"roughnessFactor":0.5
			}
		}
	],
	"meshes":[
		{
			"name":"BSurfaceMesh",
			"primitives":[
				{
					"attributes":{
						"POSITION":0,
						"NORMAL":1,
						"TEXCOORD_0":2
					},
					"indices":3,
					"material":0
				},
				{
					"attributes":{
						"POSITION":4,
						"NORMAL":5,
						"TEXCOORD_0":6
					},
					"indices":7,
					"material":0
				}
			]
		}
	],
	"textures":[
		{
			"sampler":0,
			"source":0
		}
	],
	"images":[
		{
			"mimeType":"image/png",
			"name":"New_Frame_Test",
			"uri":"New_Frame_Test.png"
		}
	],
	"accessors":[
		{
			"bufferView":0,
			"componentType":5126,
			"count":486,
			"max":[
				87.49333190917969,
				43.10633850097656,
				61.99862289428711
			],
			"min":[
				-87.49333953857422,
				-44.89369201660156,
				-113.4813232421875
			],
			"type":"VEC3"
		},
		{
			"bufferView":1,
			"componentType":5126,
			"count":486,
			"type":"VEC3"
		},
		{
			"bufferView":2,
			"componentType":5126,
			"count":486,
			"type":"VEC2"
		},
		{
			"bufferView":3,
			"componentType":5123,
			"count":1656,
			"type":"SCALAR"
		},
		{
			"bufferView":4,
			"componentType":5126,
			"count":1984,
			"max":[
				87.4995346069336,
				44.509918212890625,
				61.99862289428711
			],
			"min":[
				-87.49952697753906,
				-44.89369201660156,
				-114.93849182128906
			],
			"type":"VEC3"
		},
		{
			"bufferView":5,
			"componentType":5126,
			"count":1984,
			"type":"VEC3"
		},
		{
			"bufferView":6,
			"componentType":5126,
			"count":1984,
			"type":"VEC2"
		},
		{
			"bufferView":7,
			"componentType":5123,
			"count":8430,
			"type":"SCALAR"
		}
	],
	"bufferViews":[
		{
			"buffer":0,
			"byteLength":5832,
			"byteOffset":0,
			"target":34962
		},
		{
			"buffer":0,
			"byteLength":5832,
			"byteOffset":5832,
			"target":34962
		},
		{
			"buffer":0,
			"byteLength":3888,
			"byteOffset":11664,
			"target":34962
		},
		{
			"buffer":0,
			"byteLength":3312,
			"byteOffset":15552,
			"target":34963
		},
		{
			"buffer":0,
			"byteLength":23808,
			"byteOffset":18864,
			"target":34962
		},
		{
			"buffer":0,
			"byteLength":23808,
			"byteOffset":42672,
			"target":34962
		},
		{
			"buffer":0,
			"byteLength":15872,
			"byteOffset":66480,
			"target":34962
		},
		{
			"buffer":0,
			"byteLength":16860,
			"byteOffset":82352,
			"target":34963
		}
	],
	"samplers":[
		{
			"magFilter":9729,
			"minFilter":9987
		}
	],
	"buffers":[
		{
			"byteLength":99212,
			"uri":"Airframe.bin"
		}
	]
}
