{
	"asset":{
		"generator":"Khronos glTF Blender I/O v5.1.20",
		"version":"2.0"
	},
	"scene":0,
	"scenes":[
		{
			"name":"Scene",
			"nodes":[
				0
			]
		}
	],
	"nodes":[
		{
			"mesh":0,
			"name":"BSurfaceMesh.001",
			"scale":[
				0.10000002384185791,
				0.10000002384185791,
				0.10000002384185791
			]
		}
	],
	"materials":[
		{
			"doubleSided":true,
			"name":"Material.001",
			"normalTexture":{
				"index":0
			},
			"pbrMetallicRoughness":{
				"baseColorFactor":[
					0.800000011920929,
					0.800000011920929,
					0.800000011920929,
					1
				],
				"metallicFactor":0,
				"roughnessFactor":0.5
			}
		}
	],
	"meshes":[
		{
			"name":"BSurfaceMesh.001",
			"primitives":[
				{
					"attributes":{
						"POSITION":0,
						"NORMAL":1,
						"TEXCOORD_0":2
					},
					"indices":3,
					"material":0
				},
				{
					"attributes":{
						"POSITION":4,
						"NORMAL":5,
						"TEXCOORD_0":6
					},
					"indices":7,
					"material":0
				}
			]
		}
	],
	"textures":[
		{
			"sampler":0,
			"source":0
		}
	],
	"images":[
		{
			"mimeType":"image/png",
			"name":"New_Engine_Test",
			"uri":"New_Engine_Test.png"
		}
	],
	"accessors":[
		{
			"bufferView":0,
			"componentType":5126,
			"count":531,
			"max":[
				10.584911346435547,
				10.59815788269043,
				4.7743377685546875
			],
			"min":[
				-10.584911346435547,
				-10.598151206970215,
				-14.725663185119629
			],
			"type":"VEC3"
		},
		{
			"bufferView":1,
			"componentType":5126,
			"count":531,
			"type":"VEC3"
		},
		{
			"bufferView":2,
			"componentType":5126,
			"count":531,
			"type":"VEC2"
		},
		{
			"bufferView":3,
			"componentType":5123,
			"count":1800,
			"type":"SCALAR"
		},
		{
			"bufferView":4,
			"componentType":5126,
			"count":800,
			"max":[
				10.579730987548828,
				21.4222354888916,
				5.104089260101318
			],
			"min":[
				-10.579730987548828,
				-21.4222354888916,
				-14.725663185119629
			],
			"type":"VEC3"
		},
		{
			"bufferView":5,
			"componentType":5126,
			"count":800,
			"type":"VEC3"
		},
		{
			"bufferView":6,
			"componentType":5126,
			"count":800,
			"type":"VEC2"
		},
		{
			"bufferView":7,
			"componentType":5123,
			"count":2964,
			"type":"SCALAR"
		}
	],
	"bufferViews":[
		{
			"buffer":0,
			"byteLength":6372,
			"byteOffset":0,
			"target":34962
		},
		{
			"buffer":0,
			"byteLength":6372,
			"byteOffset":6372,
			"target":34962
		},
		{
			"buffer":0,
			"byteLength":4248,
			"byteOffset":12744,
			"target":34962
		},
		{
			"buffer":0,
			"byteLength":3600,
			"byteOffset":16992,
			"target":34963
		},
		{
			"buffer":0,
			"byteLength":9600,
			"byteOffset":20592,
			"target":34962
		},
		{
			"buffer":0,
			"byteLength":9600,
			"byteOffset":30192,
			"target":34962
		},
		{
			"buffer":0,
			"byteLength":6400,
			"byteOffset":39792,
			"target":34962
		},
		{
			"buffer":0,
			"byteLength":5928,
			"byteOffset":46192,
			"target":34963
		}
	],
	"samplers":[
		{
			"magFilter":9729,
			"minFilter":9987
		}
	],
	"buffers":[
		{
			"byteLength":52120,
			"uri":"Propeler.bin"
		}
	]
}
