{
	"asset":{
		"generator":"Khronos glTF Blender I/O v5.1.20",
		"version":"2.0"
	},
	"scene":0,
	"scenes":[
		{
			"name":"Scene",
			"nodes":[
				0,
				1,
				2,
				3,
				4,
				5,
				6,
				7,
				8,
				9,
				10,
				11
			]
		}
	],
	"nodes":[
		{
			"mesh":0,
			"name":"Cylinder.038",
			"rotation":[
				0,
				0,
				-0.7071066498756409,
				0.70710688829422
			],
			"scale":[
				0.75,
				0.75,
				0.75
			],
			"translation":[
				12.000001907348633,
				2.7581233978271484,
				0.9374961853027344
			]
		},
		{
			"mesh":0,
			"name":"Cylinder.037",
			"rotation":[
				0,
				0,
				-0.7071066498756409,
				0.70710688829422
			],
			"scale":[
				0.75,
				0.75,
				0.75
			],
			"translation":[
				12,
				2.7581233978271484,
				-2.8125
			]
		},
		{
			"mesh":0,
			"name":"Cylinder.036",
			"rotation":[
				0,
				0,
				-0.7071066498756409,
				0.70710688829422
			],
			"scale":[
				0.75,
				0.75,
				0.75
			],
			"translation":[
				12.000001907348633,
				2.7581233978271484,
				2.8124961853027344
			]
		},
		{
			"mesh":1,
			"name":"Cylinder.035",
			"rotation":[
				0,
				0,
				-0.7071066498756409,
				0.70710688829422
			],
			"translation":[
				12,
				2.7581233978271484,
				-0.9375076293945312
			]
		},
		{
			"mesh":2,
			"name":"Cylinder.013",
			"scale":[
				0.75,
				0.375,
				0.75
			]
		},
		{
			"mesh":3,
			"name":"Cylinder.012",
			"rotation":[
				0,
				0,
				-0.7071068286895752,
				0.7071068286895752
			],
			"scale":[
				0.75,
				0.75,
				0.75
			],
			"translation":[
				4.125,
				1.875,
				-0.9375
			]
		},
		{
			"mesh":3,
			"name":"Cylinder.011",
			"rotation":[
				0,
				0,
				-0.7071068286895752,
				0.7071068286895752
			],
			"scale":[
				0.75,
				0.75,
				0.75
			],
			"translation":[
				4.125,
				1.875,
				0.9375
			]
		},
		{
			"mesh":3,
			"name":"Cylinder.010",
			"rotation":[
				0,
				0,
				-0.7071068286895752,
				0.7071068286895752
			],
			"scale":[
				0.75,
				0.75,
				0.75
			],
			"translation":[
				4.125,
				1.875,
				2.8125
			]
		},
		{
			"mesh":3,
			"name":"Cylinder.009",
			"rotation":[
				0,
				0,
				-0.7071068286895752,
				0.7071068286895752
			],
			"scale":[
				0.75,
				0.75,
				0.75
			],
			"translation":[
				4.125,
				1.875,
				-2.8125
			]
		},
		{
			"mesh":4,
			"name":"Cube.003",
			"rotation":[
				0,
				-0.7071068286895752,
				0,
				0.7071068286895752
			],
			"scale":[
				0.75,
				0.75,
				0.75
			],
			"translation":[
				0,
				1.125,
				0
			]
		},
		{
			"mesh":5,
			"name":"Cube.002",
			"rotation":[
				0,
				-0.7071068286895752,
				0,
				0.7071068286895752
			],
			"scale":[
				0.75,
				0.75,
				0.75
			],
			"translation":[
				0,
				1.125,
				0
			]
		},
		{
			"mesh":6,
			"name":"Cube.001",
			"rotation":[
				0,
				-0.7071068286895752,
				0,
				0.7071068286895752
			],
			"scale":[
				0.75,
				0.75,
				0.75
			],
			"translation":[
				0,
				1.125,
				0
			]
		}
	],
	"meshes":[
		{
			"name":"Cylinder.004",
			"primitives":[
				{
					"attributes":{
						"POSITION":0,
						"NORMAL":1,
						"TEXCOORD_0":2
					},
					"indices":3
				}
			]
		},
		{
			"name":"Cylinder.009",
			"primitives":[
				{
					"attributes":{
						"POSITION":4,
						"NORMAL":5,
						"TEXCOORD_0":6
					},
					"indices":7
				}
			]
		},
		{
			"name":"Cylinder.006",
			"primitives":[
				{
					"attributes":{
						"POSITION":8,
						"NORMAL":9,
						"TEXCOORD_0":10
					},
					"indices":11
				}
			]
		},
		{
			"name":"Cylinder.005",
			"primitives":[
				{
					"attributes":{
						"POSITION":12,
						"NORMAL":13,
						"TEXCOORD_0":14
					},
					"indices":15
				}
			]
		},
		{
			"name":"Cube.003",
			"primitives":[
				{
					"attributes":{
						"POSITION":16,
						"NORMAL":17,
						"TEXCOORD_0":18
					},
					"indices":19
				}
			]
		},
		{
			"name":"Cube.002",
			"primitives":[
				{
					"attributes":{
						"POSITION":20,
						"NORMAL":21,
						"TEXCOORD_0":22
					},
					"indices":23
				}
			]
		},
		{
			"name":"Cube.004",
			"primitives":[
				{
					"attributes":{
						"POSITION":24,
						"NORMAL":25,
						"TEXCOORD_0":26
					},
					"indices":27
				}
			]
		}
	],
	"accessors":[
		{
			"bufferView":0,
			"componentType":5126,
			"count":910,
			"max":[
				2.3024988174438477,
				0.4999980926513672,
				1.1250019073486328
			],
			"min":[
				0.05249893665313721,
				-1.9073486328125e-06,
				-1.1249980926513672
			],
			"type":"VEC3"
		},
		{
			"bufferView":1,
			"componentType":5126,
			"count":910,
			"type":"VEC3"
		},
		{
			"bufferView":2,
			"componentType":5126,
			"count":910,
			"type":"VEC2"
		},
		{
			"bufferView":3,
			"componentType":5123,
			"count":4596,
			"type":"SCALAR"
		},
		{
			"bufferView":4,
			"componentType":5126,
			"count":910,
			"max":[
				1.7268741130828857,
				0.3749985694885254,
				0.8437485694885254
			],
			"min":[
				0.039374202489852905,
				-1.430511474609375e-06,
				-0.8437514305114746
			],
			"type":"VEC3"
		},
		{
			"bufferView":5,
			"componentType":5126,
			"count":910,
			"type":"VEC3"
		},
		{
			"bufferView":6,
			"componentType":5126,
			"count":910,
			"type":"VEC2"
		},
		{
			"bufferView":7,
			"componentType":5123,
			"count":4596,
			"type":"SCALAR"
		},
		{
			"bufferView":8,
			"componentType":5126,
			"count":96,
			"max":[
				4.903926372528076,
				1,
				4.903926372528076
			],
			"min":[
				-4.903926372528076,
				-1,
				-4.903926372528076
			],
			"type":"VEC3"
		},
		{
			"bufferView":9,
			"componentType":5126,
			"count":96,
			"type":"VEC3"
		},
		{
			"bufferView":10,
			"componentType":5126,
			"count":96,
			"type":"VEC2"
		},
		{
			"bufferView":11,
			"componentType":5123,
			"count":180,
			"type":"SCALAR"
		},
		{
			"bufferView":12,
			"componentType":5126,
			"count":2167,
			"max":[
				1.2000013589859009,
				10.5,
				1.2000019550323486
			],
			"min":[
				-1.1999989748001099,
				-13.499999046325684,
				-1.199998140335083
			],
			"type":"VEC3"
		},
		{
			"bufferView":13,
			"componentType":5126,
			"count":2167,
			"type":"VEC3"
		},
		{
			"bufferView":14,
			"componentType":5126,
			"count":2167,
			"type":"VEC2"
		},
		{
			"bufferView":15,
			"componentType":5123,
			"count":8436,
			"type":"SCALAR"
		},
		{
			"bufferView":16,
			"componentType":5126,
			"count":16,
			"max":[
				2.932499885559082,
				5.75,
				2.25
			],
			"min":[
				-2.982499837875366,
				5.25,
				-5
			],
			"type":"VEC3"
		},
		{
			"bufferView":17,
			"componentType":5126,
			"count":16,
			"type":"VEC3"
		},
		{
			"bufferView":18,
			"componentType":5126,
			"count":16,
			"type":"VEC2"
		},
		{
			"bufferView":19,
			"componentType":5123,
			"count":24,
			"type":"SCALAR"
		},
		{
			"bufferView":20,
			"componentType":5126,
			"count":32,
			"max":[
				5.199999809265137,
				5.25,
				5
			],
			"min":[
				-5.25,
				3.799999952316284,
				-6
			],
			"type":"VEC3"
		},
		{
			"bufferView":21,
			"componentType":5126,
			"count":32,
			"type":"VEC3"
		},
		{
			"bufferView":22,
			"componentType":5126,
			"count":32,
			"type":"VEC2"
		},
		{
			"bufferView":23,
			"componentType":5123,
			"count":48,
			"type":"SCALAR"
		},
		{
			"bufferView":24,
			"componentType":5126,
			"count":102,
			"max":[
				6,
				5.25,
				5
			],
			"min":[
				-6,
				-1,
				-6
			],
			"type":"VEC3"
		},
		{
			"bufferView":25,
			"componentType":5126,
			"count":102,
			"type":"VEC3"
		},
		{
			"bufferView":26,
			"componentType":5126,
			"count":102,
			"type":"VEC2"
		},
		{
			"bufferView":27,
			"componentType":5123,
			"count":156,
			"type":"SCALAR"
		}
	],
	"bufferViews":[
		{
			"buffer":0,
			"byteLength":10920,
			"byteOffset":0,
			"target":34962
		},
		{
			"buffer":0,
			"byteLength":10920,
			"byteOffset":10920,
			"target":34962
		},
		{
			"buffer":0,
			"byteLength":7280,
			"byteOffset":21840,
			"target":34962
		},
		{
			"buffer":0,
			"byteLength":9192,
			"byteOffset":29120,
			"target":34963
		},
		{
			"buffer":0,
			"byteLength":10920,
			"byteOffset":38312,
			"target":34962
		},
		{
			"buffer":0,
			"byteLength":10920,
			"byteOffset":49232,
			"target":34962
		},
		{
			"buffer":0,
			"byteLength":7280,
			"byteOffset":60152,
			"target":34962
		},
		{
			"buffer":0,
			"byteLength":9192,
			"byteOffset":67432,
			"target":34963
		},
		{
			"buffer":0,
			"byteLength":1152,
			"byteOffset":76624,
			"target":34962
		},
		{
			"buffer":0,
			"byteLength":1152,
			"byteOffset":77776,
			"target":34962
		},
		{
			"buffer":0,
			"byteLength":768,
			"byteOffset":78928,
			"target":34962
		},
		{
			"buffer":0,
			"byteLength":360,
			"byteOffset":79696,
			"target":34963
		},
		{
			"buffer":0,
			"byteLength":26004,
			"byteOffset":80056,
			"target":34962
		},
		{
			"buffer":0,
			"byteLength":26004,
			"byteOffset":106060,
			"target":34962
		},
		{
			"buffer":0,
			"byteLength":17336,
			"byteOffset":132064,
			"target":34962
		},
		{
			"buffer":0,
			"byteLength":16872,
			"byteOffset":149400,
			"target":34963
		},
		{
			"buffer":0,
			"byteLength":192,
			"byteOffset":166272,
			"target":34962
		},
		{
			"buffer":0,
			"byteLength":192,
			"byteOffset":166464,
			"target":34962
		},
		{
			"buffer":0,
			"byteLength":128,
			"byteOffset":166656,
			"target":34962
		},
		{
			"buffer":0,
			"byteLength":48,
			"byteOffset":166784,
			"target":34963
		},
		{
			"buffer":0,
			"byteLength":384,
			"byteOffset":166832,
			"target":34962
		},
		{
			"buffer":0,
			"byteLength":384,
			"byteOffset":167216,
			"target":34962
		},
		{
			"buffer":0,
			"byteLength":256,
			"byteOffset":167600,
			"target":34962
		},
		{
			"buffer":0,
			"byteLength":96,
			"byteOffset":167856,
			"target":34963
		},
		{
			"buffer":0,
			"byteLength":1224,
			"byteOffset":167952,
			"target":34962
		},
		{
			"buffer":0,
			"byteLength":1224,
			"byteOffset":169176,
			"target":34962
		},
		{
			"buffer":0,
			"byteLength":816,
			"byteOffset":170400,
			"target":34962
		},
		{
			"buffer":0,
			"byteLength":312,
			"byteOffset":171216,
			"target":34963
		}
	],
	"buffers":[
		{
			"byteLength":171528,
			"uri":"Torpedo_Turret.bin"
		}
	]
}
