{
	"asset":{
		"generator":"Khronos glTF Blender I/O v5.1.20",
		"version":"2.0"
	},
	"scene":0,
	"scenes":[
		{
			"name":"Scene",
			"nodes":[
				0,
				1,
				2,
				3,
				4,
				5,
				6,
				7,
				8,
				9,
				10,
				11,
				12,
				13,
				14,
				15,
				16
			]
		}
	],
	"nodes":[
		{
			"mesh":0,
			"name":"Cube",
			"translation":[
				0,
				22.5,
				-10
			]
		},
		{
			"mesh":1,
			"name":"Cube.002",
			"translation":[
				0,
				22.5,
				90
			]
		},
		{
			"mesh":2,
			"name":"Cube.003",
			"translation":[
				0,
				25,
				20
			]
		},
		{
			"mesh":3,
			"name":"Cylinder",
			"translation":[
				0,
				20,
				-20
			]
		},
		{
			"mesh":4,
			"name":"Cylinder.001",
			"translation":[
				0,
				20,
				40
			]
		},
		{
			"mesh":5,
			"name":"Cylinder.002",
			"translation":[
				0,
				20,
				72.66105651855469
			]
		},
		{
			"mesh":6,
			"name":"Cylinder.003",
			"translation":[
				20,
				16,
				55
			]
		},
		{
			"mesh":7,
			"name":"Cylinder.004",
			"translation":[
				0,
				26,
				115
			]
		},
		{
			"mesh":8,
			"name":"Cylinder.005",
			"rotation":[
				-1,
				0,
				0,
				4.371138828673793e-08
			],
			"translation":[
				0,
				25,
				-55
			]
		},
		{
			"mesh":9,
			"name":"Cylinder.006",
			"translation":[
				0,
				16,
				-95
			]
		},
		{
			"mesh":10,
			"name":"Cylinder.008",
			"translation":[
				-20,
				16,
				55
			]
		},
		{
			"mesh":11,
			"name":"Cylinder.009",
			"translation":[
				20,
				16,
				10
			]
		},
		{
			"mesh":12,
			"name":"Cylinder.010",
			"translation":[
				-20,
				16,
				10
			]
		},
		{
			"mesh":13,
			"name":"Cylinder.011",
			"translation":[
				16,
				16,
				-20
			]
		},
		{
			"mesh":14,
			"name":"Cylinder.012",
			"translation":[
				-16,
				16,
				-20
			]
		},
		{
			"mesh":15,
			"name":"Cylinder.033",
			"scale":[
				0.5,
				1,
				0.5
			],
			"translation":[
				0,
				16,
				175
			]
		},
		{
			"mesh":16,
			"name":"BATTLE SHIP HULL.002"
		}
	],
	"materials":[
		{
			"doubleSided":true,
			"name":"Material",
			"normalTexture":{
				"index":0
			},
			"pbrMetallicRoughness":{
				"baseColorFactor":[
					0.800000011920929,
					0.800000011920929,
					0.800000011920929,
					1
				],
				"metallicFactor":0,
				"roughnessFactor":0.5
			}
		}
	],
	"meshes":[
		{
			"name":"Cube",
			"primitives":[
				{
					"attributes":{
						"POSITION":0,
						"NORMAL":1,
						"TEXCOORD_0":2
					},
					"indices":3
				}
			]
		},
		{
			"name":"Cube.002",
			"primitives":[
				{
					"attributes":{
						"POSITION":4,
						"NORMAL":5,
						"TEXCOORD_0":6
					},
					"indices":7
				}
			]
		},
		{
			"name":"Cube.003",
			"primitives":[
				{
					"attributes":{
						"POSITION":8,
						"NORMAL":9,
						"TEXCOORD_0":10
					},
					"indices":11
				}
			]
		},
		{
			"name":"Cylinder",
			"primitives":[
				{
					"attributes":{
						"POSITION":12,
						"NORMAL":13,
						"TEXCOORD_0":14
					},
					"indices":15
				}
			]
		},
		{
			"name":"Cylinder.001",
			"primitives":[
				{
					"attributes":{
						"POSITION":16,
						"NORMAL":17,
						"TEXCOORD_0":18
					},
					"indices":19
				}
			]
		},
		{
			"name":"Cylinder.002",
			"primitives":[
				{
					"attributes":{
						"POSITION":20,
						"NORMAL":21,
						"TEXCOORD_0":22
					},
					"indices":23
				}
			]
		},
		{
			"name":"Cylinder.015",
			"primitives":[
				{
					"attributes":{
						"POSITION":24,
						"NORMAL":25,
						"TEXCOORD_0":26
					},
					"indices":27
				}
			]
		},
		{
			"name":"Cylinder.005",
			"primitives":[
				{
					"attributes":{
						"POSITION":28,
						"NORMAL":29,
						"TEXCOORD_0":30
					},
					"indices":31
				}
			]
		},
		{
			"name":"Cylinder.006",
			"primitives":[
				{
					"attributes":{
						"POSITION":32,
						"NORMAL":33,
						"TEXCOORD_0":34
					},
					"indices":35
				}
			]
		},
		{
			"name":"Cylinder.007",
			"primitives":[
				{
					"attributes":{
						"POSITION":36,
						"NORMAL":37,
						"TEXCOORD_0":38
					},
					"indices":35
				}
			]
		},
		{
			"name":"Cylinder.016",
			"primitives":[
				{
					"attributes":{
						"POSITION":39,
						"NORMAL":40,
						"TEXCOORD_0":41
					},
					"indices":27
				}
			]
		},
		{
			"name":"Cylinder.017",
			"primitives":[
				{
					"attributes":{
						"POSITION":42,
						"NORMAL":43,
						"TEXCOORD_0":44
					},
					"indices":27
				}
			]
		},
		{
			"name":"Cylinder.018",
			"primitives":[
				{
					"attributes":{
						"POSITION":45,
						"NORMAL":46,
						"TEXCOORD_0":47
					},
					"indices":27
				}
			]
		},
		{
			"name":"Cylinder.019",
			"primitives":[
				{
					"attributes":{
						"POSITION":48,
						"NORMAL":49,
						"TEXCOORD_0":50
					},
					"indices":27
				}
			]
		},
		{
			"name":"Cylinder.020",
			"primitives":[
				{
					"attributes":{
						"POSITION":51,
						"NORMAL":52,
						"TEXCOORD_0":53
					},
					"indices":27
				}
			]
		},
		{
			"name":"Cylinder.040",
			"primitives":[
				{
					"attributes":{
						"POSITION":54,
						"NORMAL":55,
						"TEXCOORD_0":56
					},
					"indices":27
				}
			]
		},
		{
			"name":"BATTLE SHIP HULL.002",
			"primitives":[
				{
					"attributes":{
						"POSITION":57,
						"NORMAL":58,
						"TEXCOORD_0":59
					},
					"indices":60,
					"material":0
				}
			]
		}
	],
	"textures":[
		{
			"sampler":0,
			"source":0
		}
	],
	"images":[
		{
			"mimeType":"image/png",
			"name":"Final_bake",
			"uri":"Final_bake.png"
		}
	],
	"accessors":[
		{
			"bufferView":0,
			"componentType":5126,
			"count":685,
			"max":[
				16.40625,
				8.5,
				56.75030517578125
			],
			"min":[
				-16.40625,
				-7.5,
				-7.5
			],
			"type":"VEC3"
		},
		{
			"bufferView":1,
			"componentType":5126,
			"count":685,
			"type":"VEC3"
		},
		{
			"bufferView":2,
			"componentType":5126,
			"count":685,
			"type":"VEC2"
		},
		{
			"bufferView":3,
			"componentType":5123,
			"count":1500,
			"type":"SCALAR"
		},
		{
			"bufferView":4,
			"componentType":5126,
			"count":300,
			"max":[
				25.275955200195312,
				3.25,
				42.924625396728516
			],
			"min":[
				-25.275955200195312,
				-7.5,
				-24.954368591308594
			],
			"type":"VEC3"
		},
		{
			"bufferView":5,
			"componentType":5126,
			"count":300,
			"type":"VEC3"
		},
		{
			"bufferView":6,
			"componentType":5126,
			"count":300,
			"type":"VEC2"
		},
		{
			"bufferView":7,
			"componentType":5123,
			"count":612,
			"type":"SCALAR"
		},
		{
			"bufferView":8,
			"componentType":5126,
			"count":886,
			"max":[
				9.802151679992676,
				47.762054443359375,
				4.036338806152344
			],
			"min":[
				-9.62277603149414,
				-3.75,
				-20.84308433532715
			],
			"type":"VEC3"
		},
		{
			"bufferView":9,
			"componentType":5126,
			"count":886,
			"type":"VEC3"
		},
		{
			"bufferView":10,
			"componentType":5126,
			"count":886,
			"type":"VEC2"
		},
		{
			"bufferView":11,
			"componentType":5123,
			"count":1872,
			"type":"SCALAR"
		},
		{
			"bufferView":12,
			"componentType":5126,
			"count":664,
			"max":[
				6.875,
				20,
				24.21706771850586
			],
			"min":[
				-6.875,
				-5,
				-12.5
			],
			"type":"VEC3"
		},
		{
			"bufferView":13,
			"componentType":5126,
			"count":664,
			"type":"VEC3"
		},
		{
			"bufferView":14,
			"componentType":5126,
			"count":664,
			"type":"VEC2"
		},
		{
			"bufferView":15,
			"componentType":5123,
			"count":1218,
			"type":"SCALAR"
		},
		{
			"bufferView":16,
			"componentType":5126,
			"count":620,
			"max":[
				7,
				27.000001907348633,
				16.5
			],
			"min":[
				-7,
				-5,
				-11.849742889404297
			],
			"type":"VEC3"
		},
		{
			"bufferView":17,
			"componentType":5126,
			"count":620,
			"type":"VEC3"
		},
		{
			"bufferView":18,
			"componentType":5126,
			"count":620,
			"type":"VEC2"
		},
		{
			"bufferView":19,
			"componentType":5123,
			"count":1212,
			"type":"SCALAR"
		},
		{
			"bufferView":20,
			"componentType":5126,
			"count":356,
			"max":[
				7,
				27.000003814697266,
				9
			],
			"min":[
				-7,
				-5,
				-11.849742889404297
			],
			"type":"VEC3"
		},
		{
			"bufferView":21,
			"componentType":5126,
			"count":356,
			"type":"VEC3"
		},
		{
			"bufferView":22,
			"componentType":5126,
			"count":356,
			"type":"VEC2"
		},
		{
			"bufferView":23,
			"componentType":5123,
			"count":804,
			"type":"SCALAR"
		},
		{
			"bufferView":24,
			"componentType":5126,
			"count":192,
			"max":[
				5,
				1,
				5
			],
			"min":[
				-5,
				-1,
				-5
			],
			"type":"VEC3"
		},
		{
			"bufferView":25,
			"componentType":5126,
			"count":192,
			"type":"VEC3"
		},
		{
			"bufferView":26,
			"componentType":5126,
			"count":192,
			"type":"VEC2"
		},
		{
			"bufferView":27,
			"componentType":5123,
			"count":372,
			"type":"SCALAR"
		},
		{
			"bufferView":28,
			"componentType":5126,
			"count":384,
			"max":[
				14.92648696899414,
				1,
				14.92648696899414
			],
			"min":[
				-14.92648696899414,
				-1,
				-14.92648696899414
			],
			"type":"VEC3"
		},
		{
			"bufferView":29,
			"componentType":5126,
			"count":384,
			"type":"VEC3"
		},
		{
			"bufferView":30,
			"componentType":5126,
			"count":384,
			"type":"VEC2"
		},
		{
			"bufferView":31,
			"componentType":5123,
			"count":756,
			"type":"SCALAR"
		},
		{
			"bufferView":32,
			"componentType":5126,
			"count":384,
			"max":[
				15,
				10,
				15
			],
			"min":[
				-15,
				-1,
				-15
			],
			"type":"VEC3"
		},
		{
			"bufferView":33,
			"componentType":5126,
			"count":384,
			"type":"VEC3"
		},
		{
			"bufferView":34,
			"componentType":5126,
			"count":384,
			"type":"VEC2"
		},
		{
			"bufferView":35,
			"componentType":5123,
			"count":756,
			"type":"SCALAR"
		},
		{
			"bufferView":36,
			"componentType":5126,
			"count":384,
			"max":[
				15,
				1,
				15
			],
			"min":[
				-15,
				-1,
				-15
			],
			"type":"VEC3"
		},
		{
			"bufferView":37,
			"componentType":5126,
			"count":384,
			"type":"VEC3"
		},
		{
			"bufferView":38,
			"componentType":5126,
			"count":384,
			"type":"VEC2"
		},
		{
			"bufferView":39,
			"componentType":5126,
			"count":192,
			"max":[
				5,
				1,
				5
			],
			"min":[
				-5,
				-1,
				-5
			],
			"type":"VEC3"
		},
		{
			"bufferView":40,
			"componentType":5126,
			"count":192,
			"type":"VEC3"
		},
		{
			"bufferView":41,
			"componentType":5126,
			"count":192,
			"type":"VEC2"
		},
		{
			"bufferView":42,
			"componentType":5126,
			"count":192,
			"max":[
				5,
				1,
				5
			],
			"min":[
				-5,
				-1,
				-5
			],
			"type":"VEC3"
		},
		{
			"bufferView":43,
			"componentType":5126,
			"count":192,
			"type":"VEC3"
		},
		{
			"bufferView":44,
			"componentType":5126,
			"count":192,
			"type":"VEC2"
		},
		{
			"bufferView":45,
			"componentType":5126,
			"count":192,
			"max":[
				5,
				1,
				5
			],
			"min":[
				-5,
				-1,
				-5
			],
			"type":"VEC3"
		},
		{
			"bufferView":46,
			"componentType":5126,
			"count":192,
			"type":"VEC3"
		},
		{
			"bufferView":47,
			"componentType":5126,
			"count":192,
			"type":"VEC2"
		},
		{
			"bufferView":48,
			"componentType":5126,
			"count":192,
			"max":[
				5,
				1,
				5
			],
			"min":[
				-5,
				-1,
				-5
			],
			"type":"VEC3"
		},
		{
			"bufferView":49,
			"componentType":5126,
			"count":192,
			"type":"VEC3"
		},
		{
			"bufferView":50,
			"componentType":5126,
			"count":192,
			"type":"VEC2"
		},
		{
			"bufferView":51,
			"componentType":5126,
			"count":192,
			"max":[
				5,
				1,
				5
			],
			"min":[
				-5,
				-1,
				-5
			],
			"type":"VEC3"
		},
		{
			"bufferView":52,
			"componentType":5126,
			"count":192,
			"type":"VEC3"
		},
		{
			"bufferView":53,
			"componentType":5126,
			"count":192,
			"type":"VEC2"
		},
		{
			"bufferView":54,
			"componentType":5126,
			"count":192,
			"max":[
				5,
				1,
				5
			],
			"min":[
				-5,
				-1,
				-5
			],
			"type":"VEC3"
		},
		{
			"bufferView":55,
			"componentType":5126,
			"count":192,
			"type":"VEC3"
		},
		{
			"bufferView":56,
			"componentType":5126,
			"count":192,
			"type":"VEC2"
		},
		{
			"bufferView":57,
			"componentType":5126,
			"count":2518,
			"max":[
				31.378190994262695,
				24.999977111816406,
				200
			],
			"min":[
				-31.378190994262695,
				-15.00005054473877,
				-200
			],
			"type":"VEC3"
		},
		{
			"bufferView":58,
			"componentType":5126,
			"count":2518,
			"type":"VEC3"
		},
		{
			"bufferView":59,
			"componentType":5126,
			"count":2518,
			"type":"VEC2"
		},
		{
			"bufferView":60,
			"componentType":5123,
			"count":14172,
			"type":"SCALAR"
		}
	],
	"bufferViews":[
		{
			"buffer":0,
			"byteLength":8220,
			"byteOffset":0,
			"target":34962
		},
		{
			"buffer":0,
			"byteLength":8220,
			"byteOffset":8220,
			"target":34962
		},
		{
			"buffer":0,
			"byteLength":5480,
			"byteOffset":16440,
			"target":34962
		},
		{
			"buffer":0,
			"byteLength":3000,
			"byteOffset":21920,
			"target":34963
		},
		{
			"buffer":0,
			"byteLength":3600,
			"byteOffset":24920,
			"target":34962
		},
		{
			"buffer":0,
			"byteLength":3600,
			"byteOffset":28520,
			"target":34962
		},
		{
			"buffer":0,
			"byteLength":2400,
			"byteOffset":32120,
			"target":34962
		},
		{
			"buffer":0,
			"byteLength":1224,
			"byteOffset":34520,
			"target":34963
		},
		{
			"buffer":0,
			"byteLength":10632,
			"byteOffset":35744,
			"target":34962
		},
		{
			"buffer":0,
			"byteLength":10632,
			"byteOffset":46376,
			"target":34962
		},
		{
			"buffer":0,
			"byteLength":7088,
			"byteOffset":57008,
			"target":34962
		},
		{
			"buffer":0,
			"byteLength":3744,
			"byteOffset":64096,
			"target":34963
		},
		{
			"buffer":0,
			"byteLength":7968,
			"byteOffset":67840,
			"target":34962
		},
		{
			"buffer":0,
			"byteLength":7968,
			"byteOffset":75808,
			"target":34962
		},
		{
			"buffer":0,
			"byteLength":5312,
			"byteOffset":83776,
			"target":34962
		},
		{
			"buffer":0,
			"byteLength":2436,
			"byteOffset":89088,
			"target":34963
		},
		{
			"buffer":0,
			"byteLength":7440,
			"byteOffset":91524,
			"target":34962
		},
		{
			"buffer":0,
			"byteLength":7440,
			"byteOffset":98964,
			"target":34962
		},
		{
			"buffer":0,
			"byteLength":4960,
			"byteOffset":106404,
			"target":34962
		},
		{
			"buffer":0,
			"byteLength":2424,
			"byteOffset":111364,
			"target":34963
		},
		{
			"buffer":0,
			"byteLength":4272,
			"byteOffset":113788,
			"target":34962
		},
		{
			"buffer":0,
			"byteLength":4272,
			"byteOffset":118060,
			"target":34962
		},
		{
			"buffer":0,
			"byteLength":2848,
			"byteOffset":122332,
			"target":34962
		},
		{
			"buffer":0,
			"byteLength":1608,
			"byteOffset":125180,
			"target":34963
		},
		{
			"buffer":0,
			"byteLength":2304,
			"byteOffset":126788,
			"target":34962
		},
		{
			"buffer":0,
			"byteLength":2304,
			"byteOffset":129092,
			"target":34962
		},
		{
			"buffer":0,
			"byteLength":1536,
			"byteOffset":131396,
			"target":34962
		},
		{
			"buffer":0,
			"byteLength":744,
			"byteOffset":132932,
			"target":34963
		},
		{
			"buffer":0,
			"byteLength":4608,
			"byteOffset":133676,
			"target":34962
		},
		{
			"buffer":0,
			"byteLength":4608,
			"byteOffset":138284,
			"target":34962
		},
		{
			"buffer":0,
			"byteLength":3072,
			"byteOffset":142892,
			"target":34962
		},
		{
			"buffer":0,
			"byteLength":1512,
			"byteOffset":145964,
			"target":34963
		},
		{
			"buffer":0,
			"byteLength":4608,
			"byteOffset":147476,
			"target":34962
		},
		{
			"buffer":0,
			"byteLength":4608,
			"byteOffset":152084,
			"target":34962
		},
		{
			"buffer":0,
			"byteLength":3072,
			"byteOffset":156692,
			"target":34962
		},
		{
			"buffer":0,
			"byteLength":1512,
			"byteOffset":159764,
			"target":34963
		},
		{
			"buffer":0,
			"byteLength":4608,
			"byteOffset":161276,
			"target":34962
		},
		{
			"buffer":0,
			"byteLength":4608,
			"byteOffset":165884,
			"target":34962
		},
		{
			"buffer":0,
			"byteLength":3072,
			"byteOffset":170492,
			"target":34962
		},
		{
			"buffer":0,
			"byteLength":2304,
			"byteOffset":173564,
			"target":34962
		},
		{
			"buffer":0,
			"byteLength":2304,
			"byteOffset":175868,
			"target":34962
		},
		{
			"buffer":0,
			"byteLength":1536,
			"byteOffset":178172,
			"target":34962
		},
		{
			"buffer":0,
			"byteLength":2304,
			"byteOffset":179708,
			"target":34962
		},
		{
			"buffer":0,
			"byteLength":2304,
			"byteOffset":182012,
			"target":34962
		},
		{
			"buffer":0,
			"byteLength":1536,
			"byteOffset":184316,
			"target":34962
		},
		{
			"buffer":0,
			"byteLength":2304,
			"byteOffset":185852,
			"target":34962
		},
		{
			"buffer":0,
			"byteLength":2304,
			"byteOffset":188156,
			"target":34962
		},
		{
			"buffer":0,
			"byteLength":1536,
			"byteOffset":190460,
			"target":34962
		},
		{
			"buffer":0,
			"byteLength":2304,
			"byteOffset":191996,
			"target":34962
		},
		{
			"buffer":0,
			"byteLength":2304,
			"byteOffset":194300,
			"target":34962
		},
		{
			"buffer":0,
			"byteLength":1536,
			"byteOffset":196604,
			"target":34962
		},
		{
			"buffer":0,
			"byteLength":2304,
			"byteOffset":198140,
			"target":34962
		},
		{
			"buffer":0,
			"byteLength":2304,
			"byteOffset":200444,
			"target":34962
		},
		{
			"buffer":0,
			"byteLength":1536,
			"byteOffset":202748,
			"target":34962
		},
		{
			"buffer":0,
			"byteLength":2304,
			"byteOffset":204284,
			"target":34962
		},
		{
			"buffer":0,
			"byteLength":2304,
			"byteOffset":206588,
			"target":34962
		},
		{
			"buffer":0,
			"byteLength":1536,
			"byteOffset":208892,
			"target":34962
		},
		{
			"buffer":0,
			"byteLength":30216,
			"byteOffset":210428,
			"target":34962
		},
		{
			"buffer":0,
			"byteLength":30216,
			"byteOffset":240644,
			"target":34962
		},
		{
			"buffer":0,
			"byteLength":20144,
			"byteOffset":270860,
			"target":34962
		},
		{
			"buffer":0,
			"byteLength":28344,
			"byteOffset":291004,
			"target":34963
		}
	],
	"samplers":[
		{
			"magFilter":9729,
			"minFilter":9987
		}
	],
	"buffers":[
		{
			"byteLength":319348,
			"uri":"Battleship_hore.bin"
		}
	]
}
