{
	"asset":{
		"generator":"Khronos glTF Blender I/O v5.1.20",
		"version":"2.0"
	},
	"scene":0,
	"scenes":[
		{
			"name":"Scene",
			"nodes":[
				0
			]
		}
	],
	"nodes":[
		{
			"mesh":0,
			"name":"Cylinder",
			"rotation":[
				0.7071068286895752,
				0,
				0,
				0.7071068286895752
			],
			"scale":[
				1.25,
				1,
				1.25
			]
		}
	],
	"meshes":[
		{
			"name":"Cylinder.010",
			"primitives":[
				{
					"attributes":{
						"POSITION":0,
						"NORMAL":1,
						"TEXCOORD_0":2
					},
					"indices":3
				}
			]
		}
	],
	"accessors":[
		{
			"bufferView":0,
			"componentType":5126,
			"count":1606,
			"max":[
				0.5990198254585266,
				1.043177604675293,
				0.5990199446678162
			],
			"min":[
				-0.5990198254585266,
				-20.886775970458984,
				-0.5990198850631714
			],
			"type":"VEC3"
		},
		{
			"bufferView":1,
			"componentType":5126,
			"count":1606,
			"type":"VEC3"
		},
		{
			"bufferView":2,
			"componentType":5126,
			"count":1606,
			"type":"VEC2"
		},
		{
			"bufferView":3,
			"componentType":5123,
			"count":6900,
			"type":"SCALAR"
		}
	],
	"bufferViews":[
		{
			"buffer":0,
			"byteLength":19272,
			"byteOffset":0,
			"target":34962
		},
		{
			"buffer":0,
			"byteLength":19272,
			"byteOffset":19272,
			"target":34962
		},
		{
			"buffer":0,
			"byteLength":12848,
			"byteOffset":38544,
			"target":34962
		},
		{
			"buffer":0,
			"byteLength":13800,
			"byteOffset":51392,
			"target":34963
		}
	],
	"buffers":[
		{
			"byteLength":65192,
			"uri":"Medium_Gun.bin"
		}
	]
}
