{
	"asset":{
		"generator":"Khronos glTF Blender I/O v5.1.20",
		"version":"2.0"
	},
	"scene":0,
	"scenes":[
		{
			"name":"Scene",
			"nodes":[
				0
			]
		}
	],
	"nodes":[
		{
			"mesh":0,
			"name":"Cube.001"
		}
	],
	"meshes":[
		{
			"name":"Cube.003",
			"primitives":[
				{
					"attributes":{
						"POSITION":0,
						"NORMAL":1,
						"TEXCOORD_0":2
					},
					"indices":3
				}
			]
		}
	],
	"accessors":[
		{
			"bufferView":0,
			"componentType":5126,
			"count":2114,
			"max":[
				10.575069427490234,
				9.1587495803833,
				14.95954418182373
			],
			"min":[
				-10.575069427490234,
				-1.0000001192092896,
				-10.537625312805176
			],
			"type":"VEC3"
		},
		{
			"bufferView":1,
			"componentType":5126,
			"count":2114,
			"type":"VEC3"
		},
		{
			"bufferView":2,
			"componentType":5126,
			"count":2114,
			"type":"VEC2"
		},
		{
			"bufferView":3,
			"componentType":5123,
			"count":7848,
			"type":"SCALAR"
		}
	],
	"bufferViews":[
		{
			"buffer":0,
			"byteLength":25368,
			"byteOffset":0,
			"target":34962
		},
		{
			"buffer":0,
			"byteLength":25368,
			"byteOffset":25368,
			"target":34962
		},
		{
			"buffer":0,
			"byteLength":16912,
			"byteOffset":50736,
			"target":34962
		},
		{
			"buffer":0,
			"byteLength":15696,
			"byteOffset":67648,
			"target":34963
		}
	],
	"buffers":[
		{
			"byteLength":83344,
			"uri":"Medium_Turret.bin"
		}
	]
}
