{
	"asset":{
		"generator":"Khronos glTF Blender I/O v5.1.20",
		"version":"2.0"
	},
	"scene":0,
	"scenes":[
		{
			"name":"Scene",
			"nodes":[
				0
			]
		}
	],
	"nodes":[
		{
			"mesh":0,
			"name":"Cylinder.013"
		}
	],
	"meshes":[
		{
			"name":"Cylinder.008",
			"primitives":[
				{
					"attributes":{
						"POSITION":0,
						"NORMAL":1,
						"TEXCOORD_0":2
					},
					"indices":3
				}
			]
		}
	],
	"accessors":[
		{
			"bufferView":0,
			"componentType":5126,
			"count":2467,
			"max":[
				15.818126678466797,
				10.384593963623047,
				21.159759521484375
			],
			"min":[
				-15.818126678466797,
				1,
				-16.461965560913086
			],
			"type":"VEC3"
		},
		{
			"bufferView":1,
			"componentType":5126,
			"count":2467,
			"type":"VEC3"
		},
		{
			"bufferView":2,
			"componentType":5126,
			"count":2467,
			"type":"VEC2"
		},
		{
			"bufferView":3,
			"componentType":5123,
			"count":4608,
			"type":"SCALAR"
		}
	],
	"bufferViews":[
		{
			"buffer":0,
			"byteLength":29604,
			"byteOffset":0,
			"target":34962
		},
		{
			"buffer":0,
			"byteLength":29604,
			"byteOffset":29604,
			"target":34962
		},
		{
			"buffer":0,
			"byteLength":19736,
			"byteOffset":59208,
			"target":34962
		},
		{
			"buffer":0,
			"byteLength":9216,
			"byteOffset":78944,
			"target":34963
		}
	],
	"buffers":[
		{
			"byteLength":88160,
			"uri":"Heavy_Turret.bin"
		}
	]
}
